<svg class="skill-icon js-tooltip tooltipstered" width="40" height="40" viewBox="559 1 40 40" xmlns="http://www.w3.org/2000/svg"><g fill="none" fill-rule="evenodd"><path fill="#F7DF1E" d="M559 1h40v40h-40z"></path><path d="M585.8698 32.2502c.8058 1.3155 1.854 2.2825 3.708 2.2825 1.5574 0 2.5524-.7784 2.5524-1.854 0-1.289-1.0223-1.7454-2.7365-2.4952l-.9397-.4032c-2.7124-1.1555-4.5143-2.6032-4.5143-5.6635 0-2.819 2.148-4.965 5.5047-4.965 2.39 0 4.108.8317 5.346 3.0095l-2.927 1.8793c-.6444-1.1555-1.3396-1.6108-2.419-1.6108-1.101 0-1.7987.6985-1.7987 1.6108 0 1.1277.6984 1.5842 2.311 2.2826l.9398.4025c3.1937 1.3695 4.9968 2.7657 4.9968 5.9048 0 3.384-2.6584 5.238-6.2285 5.238-3.4908 0-5.746-1.6634-6.8496-3.8437l3.0546-1.7746zm-13.278.3257c.5904 1.0475 1.1276 1.9332 2.419 1.9332 1.235 0 2.014-.4832 2.014-2.362v-12.781h3.7587v12.832c0 3.892-2.282 5.6634-5.6127 5.6634-3.0095 0-4.7524-1.5575-5.6387-3.4333l3.0597-1.8524z" fill="#000"></path></g></svg>