<svg class="skill-icon js-tooltip tooltipstered" width="40" height="40" viewBox="490 1 40 40" xmlns="http://www.w3.org/2000/svg"><g fill="none" fill-rule="evenodd"><path fill="#EF542C" d="M490 1l3 30.001L504 34l3.657-.914-.621-6.26-2.036.581v.02l-.245.044-7.66-1.97-.509-5.501h3.643l.259 2.895L504.53 24h.002l2.16-.643L506.16 18h-9.736l-.892-9.981L495.445 7H513.623l-.086 1.063-.166 1.924-.073 1.013H499.411l.352 3.001h17.909L519 1"></path><path d="M508 16l2.255 22.728L518.519 41l9.017-2.272L529.791 16H508zm4.271 6.255l-.124-1.392-.066-.737H525.763l-.065.737-.661 7.454-.011.117.002-.015-.466 5.237-.042.465-5.59 1.558-.012.004-5.595-1.562-.383-4.314h2.742l.195 2.191 3.042.827.002-.001 3.046-.827.319-3.563h-6.367l-.253-2.747 6.863-.001.249-2.814H512.326l-.055-.617z" fill="#1885D4"></path></g></svg>